<?xml version="1.0" encoding="utf-8"?>
<!-- Generator: Adobe Illustrator 20.0.0, SVG Export Plug-In . SVG Version: 6.00 Build 0)  -->
<svg version="1.1" id="Layer_1" xmlns="http://www.w3.org/2000/svg" xmlns:xlink="http://www.w3.org/1999/xlink" x="0px" y="0px"
	 viewBox="0 0 620 530" style="enable-background:new 0 0 620 530;" xml:space="preserve">
<style type="text/css">
	.st0{fill:#180555;stroke:#FFFFFF;stroke-miterlimit:10;}
	.st1{fill:url(#SVGID_1_);}
	.st2{fill:url(#SVGID_2_);}
</style>
<g>
	<g>
		<path class="st0" d="M312,172.9c0-4.1-0.3-7.9-0.8-11.6c-4.3-32.5-25.9-49.9-60.8-49.9c-27.2,0-53.4,12.5-74.2,27.2l-0.7-5.1
			l-1.3-9.5l-1.2-8.3h-53.2v8.3h-20L65,356.5h87l3.8-25.3L174.7,206c2.3-1.6,4.7-3.1,7.1-4.4c7.7-4.1,15.5-6.6,22-6.6
			c12.6,0,17.7,7.7,15.9,21l-21.2,140.5h87l3.8-25.3l21.4-142.4C311.6,183.1,312,177.9,312,172.9z"/>
		<path class="st0" d="M518.2,132c1.9-1.8,3.8-3.8,5.8-5.9c11.5-12.5,23.4-29.8,30.6-46.7L499.9,64c-3.2,15.8-10.2,39.1-16.9,52.3
			c-10.2-3-21.6-4.8-33.5-4.8c-27.9,0-50.8,7.3-66.7,19.9c-35.6,15.8-57.9,46.9-64.6,91.1l-6.2,41.3l-1.8,11.9
			c-2.3,15.8-1.6,29.5,1.8,41.1c6.8,23.5,24,38.2,47.2,42.8c5.2,1,10.7,1.6,16.4,1.6c12,0,23.3-2.2,33.8-5.7
			c10.5-3.5,20.2-8.3,29.2-13.7l-1.9,14.2c-2.1,13.3-8,23.2-17.8,30c-10.8,7.5-26.2,11.1-46.4,11.1c-5.3,0-10.4-0.2-15.2-0.6
			c-19-1.6-34.5-5.7-43.1-8.7l-15.9,66.7c12.8,4.9,39.7,11.2,75.8,11.2c45.5,0,80-10.8,104.3-31.5c23.3-19.8,37.2-48.8,42.7-86.1
			l6.4-43l14.5-96.9l0.5-3.6c0.4-3.1,0.6-6.4,0.6-9.7v-8.4C543.3,163.5,535.8,145.8,518.2,132z M399.2,263.2l6.8-44.8
			c1.5-9.7,5.7-18.2,12.4-23.5c4.7-3.7,10.6-5.9,17.7-5.9c8.2,0,15.6,1.4,21.5,3.3l-5.5,37l-6,40.4l-1.8,12
			c-7.3,5.1-16,9.3-25.2,9.8c-0.5,0-1.1,0-1.6,0C402.2,291.4,396.6,280.4,399.2,263.2z"/>
	</g>
	<linearGradient id="SVGID_1_" gradientUnits="userSpaceOnUse" x1="225.3221" y1="105.5811" x2="183.5601" y2="342.4249">
		<stop  offset="0" style="stop-color:#00D28A"/>
		<stop  offset="0.1034" style="stop-color:#00D28A"/>
		<stop  offset="0.6551" style="stop-color:#2E89B5;stop-opacity:0.3847"/>
		<stop  offset="1" style="stop-color:#4C59D2;stop-opacity:0"/>
	</linearGradient>
	<path class="st1" d="M311.2,161.3c-4.3-32.5-25.9-49.9-60.8-49.9c-27.2,0-53.4,12.5-74.2,27.2l-0.7-5.1l-1.3-9.5l-1.2-8.3h-53.2
		v8.3v207.1h36.1L174.7,206c2.3-1.6,4.7-3.1,7.1-4.4v-18.8c14.3-10.2,30.5-15.8,43-15.8c17.5,0,25.1,9.3,25.1,26.2v138h39.4
		l21.4-142.4c0.8-5.6,1.3-10.9,1.3-15.8C312,168.9,311.7,165,311.2,161.3z"/>
	<linearGradient id="SVGID_2_" gradientUnits="userSpaceOnUse" x1="475.4273" y1="59.737" x2="409.7209" y2="432.3766">
		<stop  offset="0" style="stop-color:#00D28A"/>
		<stop  offset="0.2808" style="stop-color:#00D28A"/>
		<stop  offset="0.7233" style="stop-color:#2E89B5;stop-opacity:0.3847"/>
		<stop  offset="1" style="stop-color:#4C59D2;stop-opacity:0"/>
	</linearGradient>
	<path class="st2" d="M518.2,132c1.9-1.8,3.8-3.8,5.8-5.9c11.5-12.5,23.4-29.8,30.6-46.7L499.9,64c-3.2,15.8-10.2,39.1-16.9,52.3
		c-10.2-3-21.6-4.8-33.5-4.8c-27.9,0-50.8,7.3-66.7,19.9c-15.7,12.4-24.6,29.9-24.6,50.6v17.3c0,25.5,13.4,46.1,36.3,58.2
		c-13.8,9.5-26.4,24-26.4,41.5c0,14.1,8.9,25.5,20.8,32.2c-11.5,6.2-23.4,15.6-29.7,28.3c5.2,1,10.7,1.6,16.4,1.6
		c12,0,23.3-2.2,33.8-5.7c3.5-6.5,9.5-11.5,15.2-14.6c3.9,0.2,7.8,0.2,11.9,0.2h42.2c16.9,0,30.5,6.3,30.5,25.1
		c0,21.8-21,23.6-42.6,23.6h-23.1c-9.6,0-18.1-1-24.4-3.7c-10.8,7.5-26.2,11.1-46.4,11.1c-5.3,0-10.4-0.2-15.2-0.6
		c8.5,24.4,36.1,37.8,77.9,37.8H472c2.2,0,4.4-0.1,6.5-0.1c23.3-19.8,37.2-48.8,42.7-86.1l6.4-43c-12.4-6.3-27.2-9.4-43.1-9.4h-53.2
		c-5.5,0-9.8-1.5-12.3-4.3c-0.5,0-1.1,0-1.6,0c-15.2,0-20.8-11-18.2-28.2l6.8-44.8c1.5-9.7,5.7-18.2,12.4-23.5c0-0.1,0-0.1,0-0.2
		v-13.2c0-15.8,10.6-30.3,32.4-30.3c23.6,0,32.4,17.7,32.4,35.3v8.2c0,17.2-8.6,34-31.2,34.6l-6,40.4c1.2,0,2.3,0.1,3.5,0.1
		c53,0,86.3-25.1,92.7-61.6l0.5-3.6c0.4-3.1,0.6-6.4,0.6-9.7v-8.4C543.3,163.5,535.8,145.8,518.2,132z"/>
</g>
</svg>
